# xmcd
#
# Track frame offsets: 
#        150
#        8762
#        21345
#        33343
#        47557
#        58217
#        68849
#        80902
#        93764
#        104996
#        117662
#
# Disc length: 1690 seconds
#
# Revision: 0
# Processed by: cddbd v1.5.2PL0 Copyright (c) Steve Scherf et al.
# Submitted via: ExactAudioCopy v1.0b1
#
DISCID=9806980b
DTITLE=Poutníci - Písně brněnských kovbojů
DYEAR=1984
DGENRE=bluegrass
TTITLE0=Rváč Billy
TTITLE1=Zvony mě do dálky zvou
TTITLE2=Parník New Orleans
TTITLE3=Mrtvej saloon
TTITLE4=Sám na cestě
TTITLE5=Lita z Ohenu
TTITLE6=Smolné jaro
TTITLE7=Čistotná dívka
TTITLE8=Balada o Candy Road
TTITLE9=Kolotoč
TTITLE10=Faleš lásky
EXTD=
EXTT0=
EXTT1=
EXTT2=
EXTT3=
EXTT4=
EXTT5=
EXTT6=
EXTT7=
EXTT8=
EXTT9=
EXTT10=
PLAYORDER=
